<?xml version="1.0" encoding="UTF-8" standalone="no"?><!DOCTYPE svg PUBLIC "-//W3C//DTD SVG 1.1//EN" "http://www.w3.org/Graphics/SVG/1.1/DTD/svg11.dtd"><svg width="100%" height="100%" viewBox="0 0 109 109" version="1.1" xmlns="http://www.w3.org/2000/svg" xmlns:xlink="http://www.w3.org/1999/xlink" xml:space="preserve" xmlns:serif="http://www.serif.com/" style="fill-rule:evenodd;clip-rule:evenodd;stroke-linejoin:round;stroke-miterlimit:2;"><g><path d="M75,73.996l0,14.025c0,4.308 -3.504,7.812 -7.813,7.812l-46.875,0c-4.308,0 -7.812,-3.504 -7.812,-7.812l0,-46.875c0,-4.309 3.504,-7.813 7.813,-7.813l14.287,0l12.504,-12.5l-26.791,0c-11.221,0 -20.313,9.092 -20.313,20.313l0,46.875c0,11.221 9.092,20.312 20.313,20.312l46.875,0c11.22,0 20.312,-9.091 20.312,-20.312l0,-26.529l-12.5,12.504Z" style="fill:#1f2937;fill-rule:nonzero;"/><g><path d="M94.088,0l-42.746,0c-7.859,0.008 -7.313,2.125 -3.167,6.267l13.417,13.416l-23,22.996c-4.771,4.767 -4.767,12.492 -0,17.254l10.041,10.046c4.767,4.754 12.484,4.758 17.25,-0.004l23,-23l13.167,13.167c4.587,4.583 6.279,4.704 6.279,-3.154l0.004,-42.742c-0.004,-14.321 0.1,-14.25 -14.246,-14.246Z" style="fill:#1f2937;fill-rule:nonzero;"/></g></g></svg>