<svg width="100%" height="100%" viewBox="0 0 100 100" version="1.1">
    <path d="M50.007,0c-27.615,0 -50.007,22.941 -50.007,51.241c0,22.64 14.328,41.848 34.198,48.623c2.499,0.474 3.416,-1.111 3.416,-2.465c0,-1.222 -0.046,-5.258 -0.068,-9.54c-13.911,3.1 -16.847,-6.046 -16.847,-6.046c-2.275,-5.923 -5.552,-7.497 -5.552,-7.497c-4.537,-3.181 0.342,-3.115 0.342,-3.115c5.021,0.361 7.665,5.28 7.665,5.28c4.46,7.834 11.699,5.569 14.552,4.26c0.449,-3.312 1.745,-5.573 3.175,-6.852c-11.107,-1.296 -22.783,-5.69 -22.783,-25.324c-0,-5.594 1.953,-10.165 5.152,-13.754c-0.519,-1.29 -2.231,-6.502 0.485,-13.56c-0,-0 4.199,-1.377 13.755,5.252c3.989,-1.135 8.267,-1.705 12.517,-1.724c4.25,0.019 8.531,0.589 12.527,1.724c9.545,-6.629 13.738,-5.252 13.738,-5.252c2.722,7.058 1.01,12.27 0.49,13.56c3.207,3.589 5.147,8.16 5.147,13.754c-0,19.681 -11.698,24.015 -22.834,25.283c1.794,1.59 3.392,4.709 3.392,9.489c0,6.856 -0.058,12.374 -0.058,14.062c0,1.364 0.9,2.962 3.435,2.458c19.858,-6.783 34.169,-25.983 34.169,-48.616c-0,-28.3 -22.389,-51.241 -50.006,-51.241Zm-31.278,72.994c-0.11,0.255 -0.501,0.331 -0.857,0.157c-0.363,-0.168 -0.566,-0.515 -0.449,-0.77c0.108,-0.262 0.5,-0.335 0.861,-0.16c0.364,0.168 0.571,0.518 0.445,0.773Zm2.46,2.249c-0.239,0.227 -0.705,0.122 -1.021,-0.236c-0.327,-0.358 -0.388,-0.835 -0.147,-1.065c0.246,-0.227 0.698,-0.121 1.026,0.237c0.327,0.361 0.391,0.835 0.142,1.064Zm1.687,2.878c-0.306,0.218 -0.807,0.014 -1.117,-0.442c-0.306,-0.456 -0.306,-1.002 0.007,-1.221c0.311,-0.219 0.804,-0.022 1.118,0.43c0.305,0.463 0.305,1.01 -0.008,1.233Zm2.854,3.333c-0.274,0.309 -0.858,0.226 -1.285,-0.196c-0.437,-0.414 -0.559,-1 -0.284,-1.31c0.278,-0.31 0.865,-0.223 1.295,0.196c0.434,0.413 0.567,1.003 0.274,1.31Zm3.689,1.125c-0.121,0.401 -0.683,0.583 -1.25,0.413c-0.565,-0.176 -0.936,-0.646 -0.821,-1.051c0.117,-0.404 0.682,-0.594 1.253,-0.412c0.564,0.175 0.935,0.641 0.818,1.05Zm4.197,0.477c0.014,0.422 -0.466,0.773 -1.06,0.78c-0.598,0.014 -1.082,-0.328 -1.089,-0.744c0,-0.426 0.47,-0.774 1.068,-0.784c0.594,-0.012 1.081,0.328 1.081,0.748Zm4.124,-0.162c0.071,0.412 -0.342,0.836 -0.932,0.949c-0.581,0.108 -1.118,-0.146 -1.192,-0.555c-0.072,-0.423 0.349,-0.846 0.928,-0.956c0.591,-0.105 1.121,0.143 1.196,0.562Z" />
</svg>